<mxfile host="app.diagrams.net" agent="Mozilla/5.0 (Macintosh; Intel Mac OS X 10_15_7) AppleWebKit/537.36 (KHTML, like Gecko) Chrome/127.0.0.0 Safari/537.36" version="24.7.7">
  <diagram name="Page-1" id="5d7acffa-a066-3a61-03fe-96351882024d">
    <mxGraphModel dx="3540" dy="1416" grid="1" gridSize="10" guides="1" tooltips="1" connect="1" arrows="1" fold="1" page="1" pageScale="1" pageWidth="1100" pageHeight="850" background="#ffffff" math="0" shadow="0">
      <root>
        <mxCell id="0" />
        <mxCell id="1" parent="0" />
        <mxCell id="vtATLOSWXIryipIcziMr-9" value="" style="rounded=1;whiteSpace=wrap;html=1;fillColor=#dae8fc;strokeColor=#6c8ebf;" vertex="1" parent="1">
          <mxGeometry x="1010" y="40" width="170" height="500" as="geometry" />
        </mxCell>
        <mxCell id="imnt6nDGJXxiNWujyOB6-51" value="" style="rounded=0;whiteSpace=wrap;html=1;fillColor=#f5f5f5;fontColor=#333333;strokeColor=#666666;dashed=1;" parent="1" vertex="1">
          <mxGeometry x="360" y="550" width="500" height="200" as="geometry" />
        </mxCell>
        <mxCell id="imnt6nDGJXxiNWujyOB6-49" value="" style="rounded=1;whiteSpace=wrap;html=1;fillColor=#f5f5f5;strokeColor=#666666;fontColor=#333333;" parent="1" vertex="1">
          <mxGeometry x="1350" y="152.5" width="140" height="475" as="geometry" />
        </mxCell>
        <mxCell id="2debaab0fafb2da2-10" value="MQ" style="html=1;rounded=0;shadow=0;comic=0;labelBackgroundColor=none;strokeWidth=2;fontFamily=Verdana;fontSize=12;align=center;shape=mxgraph.ios7ui.horLines;" parent="1" vertex="1">
          <mxGeometry x="422.5" y="425" width="135" height="50" as="geometry" />
        </mxCell>
        <mxCell id="imnt6nDGJXxiNWujyOB6-6" style="edgeStyle=orthogonalEdgeStyle;rounded=0;orthogonalLoop=1;jettySize=auto;html=1;" parent="1" source="21ea969265ad0168-14" edge="1" target="imnt6nDGJXxiNWujyOB6-7">
          <mxGeometry relative="1" as="geometry">
            <mxPoint x="490" y="200" as="targetPoint" />
          </mxGeometry>
        </mxCell>
        <mxCell id="21ea969265ad0168-14" value="业务数据库（RDS)" style="swimlane;html=1;fontStyle=0;childLayout=stackLayout;horizontal=1;startSize=26;fillColor=#e0e0e0;horizontalStack=0;resizeParent=1;resizeLast=0;collapsible=1;marginBottom=0;swimlaneFillColor=#ffffff;align=center;rounded=1;shadow=0;comic=0;labelBackgroundColor=none;strokeWidth=1;fontFamily=Verdana;fontSize=12" parent="1" vertex="1">
          <mxGeometry x="410" y="200" width="160" height="182" as="geometry" />
        </mxCell>
        <mxCell id="21ea969265ad0168-15" value="用户" style="text;html=1;strokeColor=none;fillColor=none;spacingLeft=4;spacingRight=4;whiteSpace=wrap;overflow=hidden;rotatable=0;points=[[0,0.5],[1,0.5]];portConstraint=eastwest;" parent="21ea969265ad0168-14" vertex="1">
          <mxGeometry y="26" width="160" height="26" as="geometry" />
        </mxCell>
        <mxCell id="21ea969265ad0168-16" value="项目" style="text;html=1;strokeColor=none;fillColor=none;spacingLeft=4;spacingRight=4;whiteSpace=wrap;overflow=hidden;rotatable=0;points=[[0,0.5],[1,0.5]];portConstraint=eastwest;" parent="21ea969265ad0168-14" vertex="1">
          <mxGeometry y="52" width="160" height="26" as="geometry" />
        </mxCell>
        <mxCell id="21ea969265ad0168-17" value="ISSUE" style="text;html=1;strokeColor=none;fillColor=none;spacingLeft=4;spacingRight=4;whiteSpace=wrap;overflow=hidden;rotatable=0;points=[[0,0.5],[1,0.5]];portConstraint=eastwest;" parent="21ea969265ad0168-14" vertex="1">
          <mxGeometry y="78" width="160" height="26" as="geometry" />
        </mxCell>
        <mxCell id="vtATLOSWXIryipIcziMr-21" style="text;html=1;strokeColor=none;fillColor=none;spacingLeft=4;spacingRight=4;whiteSpace=wrap;overflow=hidden;rotatable=0;points=[[0,0.5],[1,0.5]];portConstraint=eastwest;" vertex="1" parent="21ea969265ad0168-14">
          <mxGeometry y="104" width="160" height="26" as="geometry" />
        </mxCell>
        <mxCell id="vtATLOSWXIryipIcziMr-22" style="text;html=1;strokeColor=none;fillColor=none;spacingLeft=4;spacingRight=4;whiteSpace=wrap;overflow=hidden;rotatable=0;points=[[0,0.5],[1,0.5]];portConstraint=eastwest;" vertex="1" parent="21ea969265ad0168-14">
          <mxGeometry y="130" width="160" height="26" as="geometry" />
        </mxCell>
        <mxCell id="vtATLOSWXIryipIcziMr-23" style="text;html=1;strokeColor=none;fillColor=none;spacingLeft=4;spacingRight=4;whiteSpace=wrap;overflow=hidden;rotatable=0;points=[[0,0.5],[1,0.5]];portConstraint=eastwest;" vertex="1" parent="21ea969265ad0168-14">
          <mxGeometry y="156" width="160" height="26" as="geometry" />
        </mxCell>
        <mxCell id="21ea969265ad0168-18" value="CodeArts业务服务" style="swimlane;html=1;fontStyle=0;childLayout=stackLayout;horizontal=1;startSize=26;fillColor=#e0e0e0;horizontalStack=0;resizeParent=1;resizeLast=0;collapsible=1;marginBottom=0;swimlaneFillColor=#ffffff;align=center;rounded=1;shadow=0;comic=0;labelBackgroundColor=none;strokeWidth=1;fontFamily=Verdana;fontSize=12" parent="1" vertex="1">
          <mxGeometry x="410" y="570" width="160" height="110" as="geometry" />
        </mxCell>
        <mxCell id="21ea969265ad0168-20" value="创建项目" style="text;html=1;strokeColor=none;fillColor=none;spacingLeft=4;spacingRight=4;whiteSpace=wrap;overflow=hidden;rotatable=0;points=[[0,0.5],[1,0.5]];portConstraint=eastwest;" parent="21ea969265ad0168-18" vertex="1">
          <mxGeometry y="26" width="160" height="26" as="geometry" />
        </mxCell>
        <mxCell id="21ea969265ad0168-51" value="创建PR" style="text;html=1;strokeColor=none;fillColor=none;spacingLeft=4;spacingRight=4;whiteSpace=wrap;overflow=hidden;rotatable=0;points=[[0,0.5],[1,0.5]];portConstraint=eastwest;" parent="21ea969265ad0168-18" vertex="1">
          <mxGeometry y="52" width="160" height="26" as="geometry" />
        </mxCell>
        <mxCell id="21ea969265ad0168-21" value="创建ISSUE" style="text;html=1;strokeColor=none;fillColor=none;spacingLeft=4;spacingRight=4;whiteSpace=wrap;overflow=hidden;rotatable=0;points=[[0,0.5],[1,0.5]];portConstraint=eastwest;" parent="21ea969265ad0168-18" vertex="1">
          <mxGeometry y="78" width="160" height="26" as="geometry" />
        </mxCell>
        <mxCell id="21ea969265ad0168-26" value="Git服务" style="swimlane;html=1;fontStyle=0;childLayout=stackLayout;horizontal=1;startSize=26;fillColor=#e0e0e0;horizontalStack=0;resizeParent=1;resizeLast=0;collapsible=1;marginBottom=0;swimlaneFillColor=#ffffff;align=center;rounded=1;shadow=0;comic=0;labelBackgroundColor=none;strokeWidth=1;fontFamily=Verdana;fontSize=12" parent="1" vertex="1">
          <mxGeometry x="621.25" y="670" width="152.5" height="52" as="geometry" />
        </mxCell>
        <mxCell id="21ea969265ad0168-27" value="Push" style="text;html=1;strokeColor=none;fillColor=none;spacingLeft=4;spacingRight=4;whiteSpace=wrap;overflow=hidden;rotatable=0;points=[[0,0.5],[1,0.5]];portConstraint=eastwest;" parent="21ea969265ad0168-26" vertex="1">
          <mxGeometry y="26" width="152.5" height="26" as="geometry" />
        </mxCell>
        <mxCell id="21ea969265ad0168-30" value="Events（MQ)" style="html=1;rounded=0;shadow=0;comic=0;labelBackgroundColor=none;strokeWidth=2;fontFamily=Verdana;fontSize=12;align=center;shape=mxgraph.ios7ui.horLines;" parent="1" vertex="1">
          <mxGeometry x="630" y="425" width="135" height="50" as="geometry" />
        </mxCell>
        <mxCell id="21ea969265ad0168-31" style="edgeStyle=none;html=1;labelBackgroundColor=none;startFill=0;startSize=8;endFill=1;endSize=8;fontFamily=Verdana;fontSize=12;" parent="1" source="21ea969265ad0168-18" target="2debaab0fafb2da2-10" edge="1">
          <mxGeometry relative="1" as="geometry" />
        </mxCell>
        <mxCell id="21ea969265ad0168-32" style="edgeStyle=none;html=1;labelBackgroundColor=none;startFill=0;startSize=8;endFill=1;endSize=8;fontFamily=Verdana;fontSize=12;" parent="1" source="2debaab0fafb2da2-10" target="21ea969265ad0168-14" edge="1">
          <mxGeometry relative="1" as="geometry" />
        </mxCell>
        <mxCell id="21ea969265ad0168-37" style="edgeStyle=orthogonalEdgeStyle;html=1;labelBackgroundColor=none;startFill=0;startSize=8;endFill=1;endSize=8;fontFamily=Verdana;fontSize=12;entryX=0.504;entryY=0.98;entryDx=0;entryDy=0;entryPerimeter=0;" parent="1" source="21ea969265ad0168-26" target="21ea969265ad0168-30" edge="1">
          <mxGeometry relative="1" as="geometry" />
        </mxCell>
        <mxCell id="imnt6nDGJXxiNWujyOB6-5" style="edgeStyle=orthogonalEdgeStyle;rounded=1;orthogonalLoop=1;jettySize=auto;html=1;entryX=1.013;entryY=0.269;entryDx=0;entryDy=0;entryPerimeter=0;curved=0;" parent="1" source="21ea969265ad0168-30" target="21ea969265ad0168-16" edge="1">
          <mxGeometry relative="1" as="geometry" />
        </mxCell>
        <mxCell id="imnt6nDGJXxiNWujyOB6-7" value="Kafka（binlog）" style="html=1;rounded=0;shadow=0;comic=0;labelBackgroundColor=none;strokeWidth=2;fontFamily=Verdana;fontSize=12;align=center;shape=mxgraph.ios7ui.horLines;" parent="1" vertex="1">
          <mxGeometry x="422.5" y="50" width="135" height="50" as="geometry" />
        </mxCell>
        <mxCell id="imnt6nDGJXxiNWujyOB6-9" style="edgeStyle=orthogonalEdgeStyle;rounded=0;orthogonalLoop=1;jettySize=auto;html=1;entryX=0;entryY=0.5;entryDx=0;entryDy=0;curved=1;" parent="1" target="vtATLOSWXIryipIcziMr-1" edge="1">
          <mxGeometry relative="1" as="geometry">
            <mxPoint x="850" y="75.05882352941171" as="sourcePoint" />
            <mxPoint x="793.04" y="141.94000000000005" as="targetPoint" />
          </mxGeometry>
        </mxCell>
        <mxCell id="imnt6nDGJXxiNWujyOB6-13" value="" style="edgeStyle=orthogonalEdgeStyle;rounded=0;orthogonalLoop=1;jettySize=auto;html=1;entryX=0;entryY=0.5;entryDx=0;entryDy=0;elbow=vertical;curved=1;" parent="1" source="imnt6nDGJXxiNWujyOB6-10" target="imnt6nDGJXxiNWujyOB6-11" edge="1">
          <mxGeometry relative="1" as="geometry" />
        </mxCell>
        <mxCell id="imnt6nDGJXxiNWujyOB6-14" style="edgeStyle=orthogonalEdgeStyle;rounded=0;orthogonalLoop=1;jettySize=auto;html=1;entryX=0;entryY=0.5;entryDx=0;entryDy=0;curved=1;" parent="1" source="imnt6nDGJXxiNWujyOB6-10" target="imnt6nDGJXxiNWujyOB6-12" edge="1">
          <mxGeometry relative="1" as="geometry" />
        </mxCell>
        <mxCell id="imnt6nDGJXxiNWujyOB6-10" value="Actor" style="shape=umlActor;verticalLabelPosition=bottom;verticalAlign=top;html=1;outlineConnect=0;" parent="1" vertex="1">
          <mxGeometry x="-190" y="360" width="30" height="60" as="geometry" />
        </mxCell>
        <mxCell id="imnt6nDGJXxiNWujyOB6-22" style="edgeStyle=orthogonalEdgeStyle;rounded=0;orthogonalLoop=1;jettySize=auto;html=1;entryX=0;entryY=0.5;entryDx=0;entryDy=0;" parent="1" source="imnt6nDGJXxiNWujyOB6-11" target="imnt6nDGJXxiNWujyOB6-21" edge="1">
          <mxGeometry relative="1" as="geometry" />
        </mxCell>
        <mxCell id="imnt6nDGJXxiNWujyOB6-11" value="页面API操作" style="rounded=1;whiteSpace=wrap;html=1;" parent="1" vertex="1">
          <mxGeometry x="20" y="318" width="70" height="54" as="geometry" />
        </mxCell>
        <mxCell id="imnt6nDGJXxiNWujyOB6-16" style="edgeStyle=orthogonalEdgeStyle;rounded=0;orthogonalLoop=1;jettySize=auto;html=1;entryX=0;entryY=0.5;entryDx=0;entryDy=0;" parent="1" source="imnt6nDGJXxiNWujyOB6-12" target="imnt6nDGJXxiNWujyOB6-15" edge="1">
          <mxGeometry relative="1" as="geometry" />
        </mxCell>
        <mxCell id="vtATLOSWXIryipIcziMr-35" value="非gitcode页面操作" style="edgeLabel;html=1;align=center;verticalAlign=middle;resizable=0;points=[];" vertex="1" connectable="0" parent="imnt6nDGJXxiNWujyOB6-16">
          <mxGeometry x="-0.276" y="1" relative="1" as="geometry">
            <mxPoint as="offset" />
          </mxGeometry>
        </mxCell>
        <mxCell id="imnt6nDGJXxiNWujyOB6-12" value="ssh代码提交" style="rounded=1;whiteSpace=wrap;html=1;" parent="1" vertex="1">
          <mxGeometry x="20" y="500" width="70" height="50" as="geometry" />
        </mxCell>
        <mxCell id="vtATLOSWXIryipIcziMr-36" style="edgeStyle=orthogonalEdgeStyle;rounded=0;orthogonalLoop=1;jettySize=auto;html=1;curved=1;" edge="1" parent="1" source="imnt6nDGJXxiNWujyOB6-15" target="21ea969265ad0168-27">
          <mxGeometry relative="1" as="geometry" />
        </mxCell>
        <mxCell id="imnt6nDGJXxiNWujyOB6-15" value="Proxy" style="rounded=1;whiteSpace=wrap;html=1;" parent="1" vertex="1">
          <mxGeometry x="230" y="500" width="70" height="50" as="geometry" />
        </mxCell>
        <mxCell id="imnt6nDGJXxiNWujyOB6-23" style="edgeStyle=orthogonalEdgeStyle;rounded=1;orthogonalLoop=1;jettySize=auto;html=1;entryX=0;entryY=0.5;entryDx=0;entryDy=0;curved=0;" parent="1" source="vtATLOSWXIryipIcziMr-32" target="21ea969265ad0168-16" edge="1">
          <mxGeometry relative="1" as="geometry" />
        </mxCell>
        <mxCell id="imnt6nDGJXxiNWujyOB6-21" value="GitCode服务" style="rounded=1;whiteSpace=wrap;html=1;" parent="1" vertex="1">
          <mxGeometry x="180" y="318" width="70" height="54" as="geometry" />
        </mxCell>
        <mxCell id="imnt6nDGJXxiNWujyOB6-31" value="数美机审服务" style="rounded=1;whiteSpace=wrap;html=1;fillColor=#f5f5f5;fontColor=#333333;strokeColor=#666666;" parent="1" vertex="1">
          <mxGeometry x="1380" y="186" width="80" height="174" as="geometry" />
        </mxCell>
        <mxCell id="imnt6nDGJXxiNWujyOB6-32" style="edgeStyle=orthogonalEdgeStyle;rounded=1;orthogonalLoop=1;jettySize=auto;html=1;curved=0;entryX=-0.004;entryY=0.175;entryDx=0;entryDy=0;entryPerimeter=0;exitX=1;exitY=0.5;exitDx=0;exitDy=0;" parent="1" source="vtATLOSWXIryipIcziMr-1" target="imnt6nDGJXxiNWujyOB6-49" edge="1">
          <mxGeometry relative="1" as="geometry">
            <mxPoint x="950" y="215" as="sourcePoint" />
          </mxGeometry>
        </mxCell>
        <mxCell id="vtATLOSWXIryipIcziMr-29" value="推审，短文本，链接，图片" style="edgeLabel;html=1;align=center;verticalAlign=middle;resizable=0;points=[];" vertex="1" connectable="0" parent="imnt6nDGJXxiNWujyOB6-32">
          <mxGeometry x="-0.3428" y="-2" relative="1" as="geometry">
            <mxPoint x="12" y="-1" as="offset" />
          </mxGeometry>
        </mxCell>
        <mxCell id="vtATLOSWXIryipIcziMr-2" style="edgeStyle=orthogonalEdgeStyle;rounded=1;orthogonalLoop=1;jettySize=auto;html=1;entryX=0.5;entryY=1;entryDx=0;entryDy=0;exitX=1.006;exitY=-0.154;exitDx=0;exitDy=0;exitPerimeter=0;curved=0;" edge="1" parent="1" source="imnt6nDGJXxiNWujyOB6-34" target="imnt6nDGJXxiNWujyOB6-42">
          <mxGeometry relative="1" as="geometry" />
        </mxCell>
        <mxCell id="imnt6nDGJXxiNWujyOB6-33" value="审计记录库" style="swimlane;html=1;fontStyle=0;childLayout=stackLayout;horizontal=1;startSize=26;fillColor=#e0e0e0;horizontalStack=0;resizeParent=1;resizeLast=0;collapsible=1;marginBottom=0;swimlaneFillColor=#ffffff;align=center;rounded=1;shadow=0;comic=0;labelBackgroundColor=none;strokeWidth=1;fontFamily=Verdana;fontSize=12" parent="1" vertex="1">
          <mxGeometry x="770" y="280" width="160" height="110" as="geometry" />
        </mxCell>
        <mxCell id="imnt6nDGJXxiNWujyOB6-34" value="用户&amp;nbsp; &amp;nbsp; 机审状态， 人审状态" style="text;html=1;strokeColor=none;fillColor=none;spacingLeft=4;spacingRight=4;whiteSpace=wrap;overflow=hidden;rotatable=0;points=[[0,0.5],[1,0.5]];portConstraint=eastwest;" parent="imnt6nDGJXxiNWujyOB6-33" vertex="1">
          <mxGeometry y="26" width="160" height="26" as="geometry" />
        </mxCell>
        <mxCell id="imnt6nDGJXxiNWujyOB6-35" value="项目" style="text;html=1;strokeColor=none;fillColor=none;spacingLeft=4;spacingRight=4;whiteSpace=wrap;overflow=hidden;rotatable=0;points=[[0,0.5],[1,0.5]];portConstraint=eastwest;" parent="imnt6nDGJXxiNWujyOB6-33" vertex="1">
          <mxGeometry y="52" width="160" height="26" as="geometry" />
        </mxCell>
        <mxCell id="imnt6nDGJXxiNWujyOB6-36" value="commit" style="text;html=1;strokeColor=none;fillColor=none;spacingLeft=4;spacingRight=4;whiteSpace=wrap;overflow=hidden;rotatable=0;points=[[0,0.5],[1,0.5]];portConstraint=eastwest;" parent="imnt6nDGJXxiNWujyOB6-33" vertex="1">
          <mxGeometry y="78" width="160" height="32" as="geometry" />
        </mxCell>
        <mxCell id="vtATLOSWXIryipIcziMr-16" style="edgeStyle=orthogonalEdgeStyle;rounded=0;orthogonalLoop=1;jettySize=auto;html=1;curved=1;" edge="1" parent="1" source="vtATLOSWXIryipIcziMr-25">
          <mxGeometry relative="1" as="geometry">
            <mxPoint x="740.0000000000005" y="170" as="targetPoint" />
          </mxGeometry>
        </mxCell>
        <mxCell id="imnt6nDGJXxiNWujyOB6-42" value="审核策略任务" style="rounded=1;whiteSpace=wrap;html=1;" parent="1" vertex="1">
          <mxGeometry x="1030" y="160" width="120" height="40" as="geometry" />
        </mxCell>
        <mxCell id="vtATLOSWXIryipIcziMr-7" style="edgeStyle=orthogonalEdgeStyle;rounded=1;orthogonalLoop=1;jettySize=auto;html=1;entryX=1;entryY=0.75;entryDx=0;entryDy=0;curved=0;" edge="1" parent="1" source="vtATLOSWXIryipIcziMr-19" target="vtATLOSWXIryipIcziMr-5">
          <mxGeometry relative="1" as="geometry" />
        </mxCell>
        <mxCell id="imnt6nDGJXxiNWujyOB6-45" value="人审服务" style="rounded=1;whiteSpace=wrap;html=1;fillColor=#f5f5f5;fontColor=#333333;strokeColor=#666666;" parent="1" vertex="1">
          <mxGeometry x="1380" y="420" width="80" height="170" as="geometry" />
        </mxCell>
        <mxCell id="vtATLOSWXIryipIcziMr-1" value="推审服务" style="rounded=1;whiteSpace=wrap;html=1;" vertex="1" parent="1">
          <mxGeometry x="1030" y="82.5" width="120" height="47.5" as="geometry" />
        </mxCell>
        <mxCell id="vtATLOSWXIryipIcziMr-14" style="edgeStyle=orthogonalEdgeStyle;rounded=0;orthogonalLoop=1;jettySize=auto;html=1;curved=1;entryX=1.017;entryY=1.065;entryDx=0;entryDy=0;entryPerimeter=0;" edge="1" parent="1" source="vtATLOSWXIryipIcziMr-5" target="imnt6nDGJXxiNWujyOB6-35">
          <mxGeometry relative="1" as="geometry" />
        </mxCell>
        <mxCell id="vtATLOSWXIryipIcziMr-5" value="审核回调服务" style="rounded=1;whiteSpace=wrap;html=1;" vertex="1" parent="1">
          <mxGeometry x="1030" y="380" width="120" height="60" as="geometry" />
        </mxCell>
        <mxCell id="vtATLOSWXIryipIcziMr-8" style="edgeStyle=orthogonalEdgeStyle;rounded=1;orthogonalLoop=1;jettySize=auto;html=1;entryX=1;entryY=0.383;entryDx=0;entryDy=0;entryPerimeter=0;curved=0;" edge="1" parent="1" source="imnt6nDGJXxiNWujyOB6-48" target="vtATLOSWXIryipIcziMr-5">
          <mxGeometry relative="1" as="geometry" />
        </mxCell>
        <mxCell id="vtATLOSWXIryipIcziMr-13" value="&lt;font face=&quot;Comic Sans MS&quot;&gt;审核服务（曹洋）&lt;/font&gt;" style="ellipse;whiteSpace=wrap;html=1;align=center;container=1;recursiveResize=0;treeFolding=1;strokeWidth=0;dashed=1;fillColor=#d5e8d4;strokeColor=#82b366;" vertex="1" parent="1">
          <mxGeometry x="1020" y="10" width="110" height="40" as="geometry" />
        </mxCell>
        <mxCell id="vtATLOSWXIryipIcziMr-17" style="edgeStyle=orthogonalEdgeStyle;rounded=1;orthogonalLoop=1;jettySize=auto;html=1;entryX=0.75;entryY=0;entryDx=0;entryDy=0;curved=0;" edge="1" parent="1" source="vtATLOSWXIryipIcziMr-15" target="21ea969265ad0168-14">
          <mxGeometry relative="1" as="geometry" />
        </mxCell>
        <mxCell id="vtATLOSWXIryipIcziMr-30" value="更新数据库" style="edgeLabel;html=1;align=center;verticalAlign=middle;resizable=0;points=[];" vertex="1" connectable="0" parent="vtATLOSWXIryipIcziMr-17">
          <mxGeometry x="0.0664" y="1" relative="1" as="geometry">
            <mxPoint as="offset" />
          </mxGeometry>
        </mxCell>
        <mxCell id="vtATLOSWXIryipIcziMr-15" value="业务服务" style="rounded=1;whiteSpace=wrap;html=1;" vertex="1" parent="1">
          <mxGeometry x="670" y="140" width="120" height="60" as="geometry" />
        </mxCell>
        <mxCell id="vtATLOSWXIryipIcziMr-18" value="" style="edgeStyle=orthogonalEdgeStyle;rounded=1;orthogonalLoop=1;jettySize=auto;html=1;entryX=1;entryY=0.383;entryDx=0;entryDy=0;entryPerimeter=0;curved=0;" edge="1" parent="1" source="imnt6nDGJXxiNWujyOB6-31" target="imnt6nDGJXxiNWujyOB6-48">
          <mxGeometry relative="1" as="geometry">
            <mxPoint x="1380" y="273" as="sourcePoint" />
            <mxPoint x="1150" y="403" as="targetPoint" />
          </mxGeometry>
        </mxCell>
        <mxCell id="imnt6nDGJXxiNWujyOB6-48" value="机审回调" style="text;html=1;align=center;verticalAlign=middle;resizable=0;points=[];autosize=1;strokeColor=none;fillColor=none;" parent="1" vertex="1">
          <mxGeometry x="1260" y="310" width="70" height="30" as="geometry" />
        </mxCell>
        <mxCell id="vtATLOSWXIryipIcziMr-20" value="" style="edgeStyle=orthogonalEdgeStyle;rounded=1;orthogonalLoop=1;jettySize=auto;html=1;entryX=1;entryY=0.75;entryDx=0;entryDy=0;curved=0;" edge="1" parent="1" source="imnt6nDGJXxiNWujyOB6-45" target="vtATLOSWXIryipIcziMr-19">
          <mxGeometry relative="1" as="geometry">
            <mxPoint x="1380" y="505" as="sourcePoint" />
            <mxPoint x="1150" y="425" as="targetPoint" />
          </mxGeometry>
        </mxCell>
        <mxCell id="vtATLOSWXIryipIcziMr-19" value="人审回调" style="text;html=1;align=center;verticalAlign=middle;resizable=0;points=[];autosize=1;strokeColor=none;fillColor=none;" vertex="1" parent="1">
          <mxGeometry x="1270" y="490" width="70" height="30" as="geometry" />
        </mxCell>
        <mxCell id="vtATLOSWXIryipIcziMr-24" value="华为CodeArts" style="text;html=1;align=center;verticalAlign=middle;whiteSpace=wrap;rounded=0;" vertex="1" parent="1">
          <mxGeometry x="777.5" y="560" width="60" height="30" as="geometry" />
        </mxCell>
        <mxCell id="vtATLOSWXIryipIcziMr-27" value="" style="edgeStyle=orthogonalEdgeStyle;rounded=0;orthogonalLoop=1;jettySize=auto;html=1;entryX=0;entryY=0.5;entryDx=0;entryDy=0;curved=1;" edge="1" parent="1" source="imnt6nDGJXxiNWujyOB6-7">
          <mxGeometry relative="1" as="geometry">
            <mxPoint x="558" y="75" as="sourcePoint" />
            <mxPoint x="710" y="75" as="targetPoint" />
          </mxGeometry>
        </mxCell>
        <mxCell id="vtATLOSWXIryipIcziMr-28" value="" style="edgeStyle=orthogonalEdgeStyle;rounded=0;orthogonalLoop=1;jettySize=auto;html=1;curved=1;" edge="1" parent="1" source="imnt6nDGJXxiNWujyOB6-42" target="vtATLOSWXIryipIcziMr-25">
          <mxGeometry relative="1" as="geometry">
            <mxPoint x="740.0000000000005" y="170" as="targetPoint" />
            <mxPoint x="1030" y="190" as="sourcePoint" />
          </mxGeometry>
        </mxCell>
        <mxCell id="vtATLOSWXIryipIcziMr-25" value="根据审核通过策略进行更新业务服务状态" style="text;html=1;align=center;verticalAlign=middle;whiteSpace=wrap;rounded=0;" vertex="1" parent="1">
          <mxGeometry x="820" y="160" width="142" height="30" as="geometry" />
        </mxCell>
        <mxCell id="vtATLOSWXIryipIcziMr-31" value="&lt;h1 style=&quot;margin-top: 0px;&quot;&gt;推审规则&lt;/h1&gt;&lt;p&gt;1. 需过滤无需送审字段&lt;/p&gt;&lt;p&gt;2. 过滤掉状态变更事件&lt;/p&gt;" style="text;html=1;whiteSpace=wrap;overflow=hidden;rounded=0;" vertex="1" parent="1">
          <mxGeometry x="710" y="15" width="180" height="120" as="geometry" />
        </mxCell>
        <mxCell id="vtATLOSWXIryipIcziMr-33" value="" style="edgeStyle=orthogonalEdgeStyle;rounded=1;orthogonalLoop=1;jettySize=auto;html=1;entryX=0;entryY=0.5;entryDx=0;entryDy=0;curved=0;" edge="1" parent="1" source="imnt6nDGJXxiNWujyOB6-21" target="vtATLOSWXIryipIcziMr-32">
          <mxGeometry relative="1" as="geometry">
            <mxPoint x="225" y="318" as="sourcePoint" />
            <mxPoint x="410" y="265" as="targetPoint" />
          </mxGeometry>
        </mxCell>
        <mxCell id="vtATLOSWXIryipIcziMr-32" value="写类操作" style="text;html=1;align=center;verticalAlign=middle;resizable=0;points=[];autosize=1;strokeColor=none;fillColor=none;" vertex="1" parent="1">
          <mxGeometry x="240" y="250" width="70" height="30" as="geometry" />
        </mxCell>
        <mxCell id="vtATLOSWXIryipIcziMr-37" value="数美" style="text;html=1;align=center;verticalAlign=middle;whiteSpace=wrap;rounded=0;fontSize=14;" vertex="1" parent="1">
          <mxGeometry x="1360" y="140" width="60" height="30" as="geometry" />
        </mxCell>
      </root>
    </mxGraphModel>
  </diagram>
</mxfile>
